<?xml version="1.0" encoding="UTF-8"?>
<svg width="120" height="120" viewBox="0 0 120 120" fill="none" xmlns="http://www.w3.org/2000/svg">
  <circle cx="60" cy="60" r="58" fill="#F5F5F5" stroke="#E0E0E0" stroke-width="2"/>
  <path d="M60 35C53.3726 35 48 40.3726 48 47C48 53.6274 53.3726 59 60 59C66.6274 59 72 53.6274 72 47C72 40.3726 66.6274 35 60 35ZM60 39C64.4183 39 68 42.5817 68 47C68 51.4183 64.4183 55 60 55C55.5817 55 52 51.4183 52 47C52 42.5817 55.5817 39 60 39Z" fill="#424242"/>
  <path d="M40 75C40 67.8203 45.8203 62 53 62H67C74.1797 62 80 67.8203 80 75V85H76V75C76 70.0294 71.9706 66 67 66H53C48.0294 66 44 70.0294 44 75V85H40V75Z" fill="#424242"/>
  <path d="M35 45C35 41.6863 37.6863 39 41 39V43C39.8954 43 39 43.8954 39 45H35Z" fill="#424242"/>
  <path d="M85 45C85 41.6863 82.3137 39 79 39V43C80.1046 43 81 43.8954 81 45H85Z" fill="#424242"/>
  <path d="M60 70C51.7157 70 45 76.7157 45 85H75C75 76.7157 68.2843 70 60 70Z" fill="#FF5722"/>
</svg> 